<svg xmlns="http://www.w3.org/2000/svg" width="1600" height="800" viewBox="0 0 1600 800" version="1.1"><path d="M 678 340 C 678 362.279, 677.611 380, 677.122 380 C 676.640 380, 675.687 379.328, 675.005 378.506 C 673.096 376.206, 663.821 371.177, 657.336 368.925 C 649.057 366.052, 637.235 365.434, 628 367.394 C 615.965 369.947, 608.714 374.072, 598.982 383.899 C 584.761 398.258, 579 412.414, 579 433 C 579 451.499, 584.277 466.088, 595.529 478.692 C 616.041 501.670, 649.004 505.835, 673.136 488.498 L 678 485.003 678 492.002 L 678 499 689.500 499 L 701 499 701 399.500 L 701 300 689.500 300 L 678 300 678 340 M 1451 407.967 L 1451 499 1462.460 499 L 1473.920 499 1474.210 455.750 L 1474.500 412.500 1477.300 406.797 C 1484.700 391.729, 1502.136 384.927, 1515.667 391.830 C 1520.817 394.457, 1527.572 401.876, 1530.190 407.780 C 1532.828 413.728, 1533.822 430.625, 1533.926 471.283 L 1534 500.066 1545.162 499.783 L 1556.324 499.500 1556.105 456.500 C 1555.864 408.890, 1555.644 406.868, 1549.399 394.955 C 1545.344 387.220, 1535.966 377.590, 1527.626 372.598 C 1513.511 364.147, 1492.559 364.311, 1478.531 372.981 C 1476.734 374.091, 1474.986 375, 1474.647 375 C 1474.308 375, 1473.911 362.063, 1473.765 346.250 L 1473.500 317.500 1462.250 317.217 L 1451 316.934 1451 407.967 M 802 346 L 802 366 792.500 366 L 783 366 783 377.500 L 783 389 792.500 389 L 802 389 802 429.318 C 802 473.486, 802.217 475.491, 807.931 484.045 C 814.565 493.976, 827.106 499, 845.261 499 L 856.066 499 855.783 487.750 L 855.500 476.500 845.500 475.967 C 834.168 475.362, 830.033 473.741, 826.960 468.701 C 825.113 465.674, 825.007 463.423, 825.004 427.250 L 825 389 840.500 389 L 856 389 856 377.500 L 856 366 840.500 366 L 825 366 825 346 L 825 326 813.500 326 L 802 326 802 346 M 1094 346 L 1094 366 1084.500 366 L 1075 366 1075 377.500 L 1075 389 1084.500 389 L 1094 389 1094 429.318 C 1094 473.486, 1094.217 475.491, 1099.931 484.045 C 1106.565 493.976, 1119.106 499, 1137.261 499 L 1148.066 499 1147.783 487.750 L 1147.500 476.500 1137.500 475.967 C 1126.168 475.362, 1122.033 473.741, 1118.960 468.701 C 1117.113 465.674, 1117.007 463.423, 1117.004 427.250 L 1117 389 1132.500 389 L 1148 389 1148 377.500 L 1148 366 1132.500 366 L 1117 366 1117 346 L 1117 326 1105.500 326 L 1094 326 1094 346 M 740 338.500 L 740 350 751.500 350 L 763 350 763 338.500 L 763 327 751.500 327 L 740 327 740 338.500 M 92 367.500 C 80.813 370.038, 73.429 374.359, 63.982 383.899 C 49.761 398.258, 44 412.414, 44 433 C 44 451.499, 49.277 466.088, 60.529 478.692 C 81.041 501.670, 114.004 505.835, 138.136 488.498 L 143 485.003 143 492.002 L 143 499 154.500 499 L 166 499 166 432.500 L 166 366 154.500 366 L 143 366 143 373 C 143 380.022, 142.312 381.286, 140.005 378.506 C 138.105 376.217, 128.840 371.185, 122.336 368.910 C 114.585 366.200, 100.596 365.549, 92 367.500 M 247.209 367.458 C 224.893 372.542, 207.071 390.761, 200.932 414.766 C 198.296 425.072, 198.314 440.996, 200.972 451.391 C 204.934 466.883, 215.201 481.335, 228.314 489.879 C 238.176 496.304, 244.691 498.289, 257.500 498.768 C 276.990 499.498, 289.610 494.914, 303.132 482.194 C 307.459 478.123, 311 474.257, 311 473.602 C 311 472.536, 295.045 460, 293.688 460 C 293.383 460, 290.860 462.214, 288.082 464.920 C 285.304 467.626, 280.436 471.112, 277.265 472.667 C 272.002 475.248, 270.543 475.494, 260.500 475.497 C 250.846 475.500, 248.888 475.200, 244.500 473.047 C 241.750 471.698, 237.396 468.440, 234.824 465.806 C 230.460 461.338, 223 448.441, 223 445.366 C 223 444.230, 231.254 444, 272 444 L 321 444 321 435.088 C 321 411.940, 312.861 393.279, 297.011 380.089 C 286.203 371.094, 276.055 367.083, 262.500 366.447 C 256.788 366.179, 251.202 366.548, 247.209 367.458 M 353 432.467 L 353 499 364.500 499 L 376 499 376.012 460.250 C 376.024 419.091, 376.303 416.119, 381.035 406.645 C 383.983 400.742, 389.172 395.798, 395.993 392.393 C 400.610 390.088, 403.125 389.577, 411.743 389.194 L 422 388.738 422 377.222 L 422 365.706 410.250 366.252 C 397.286 366.855, 388.831 369.075, 380.800 373.983 L 376.100 376.856 375.800 371.678 L 375.500 366.500 364.250 366.217 L 353 365.934 353 432.467 M 483 367.500 C 471.813 370.038, 464.429 374.359, 454.982 383.899 C 440.761 398.258, 435 412.414, 435 433 C 435 451.499, 440.277 466.088, 451.529 478.692 C 469.825 499.188, 498.276 504.976, 521.961 493.020 C 529.216 489.357, 539.827 479.618, 545.230 471.661 C 561.216 448.121, 560.723 414.460, 544.062 391.855 C 538.734 384.626, 529.265 376.196, 522.727 372.861 C 510.654 366.702, 495.519 364.659, 483 367.500 M 740 432.500 L 740 499 751 499 L 762 499 762 432.500 L 762 366 751 366 L 740 366 740 432.500 M 919.209 367.458 C 896.893 372.542, 879.071 390.761, 872.932 414.766 C 870.296 425.072, 870.314 440.996, 872.972 451.391 C 876.934 466.883, 887.201 481.335, 900.314 489.879 C 910.176 496.304, 916.691 498.289, 929.500 498.768 C 948.990 499.498, 961.610 494.914, 975.132 482.194 C 979.459 478.123, 983 474.257, 983 473.602 C 983 472.536, 967.045 460, 965.688 460 C 965.383 460, 962.860 462.214, 960.082 464.920 C 957.304 467.626, 952.436 471.112, 949.265 472.667 C 944.002 475.248, 942.543 475.494, 932.500 475.497 C 922.846 475.500, 920.888 475.200, 916.500 473.047 C 913.750 471.698, 909.396 468.440, 906.824 465.806 C 902.460 461.338, 895 448.441, 895 445.366 C 895 444.230, 903.254 444, 944 444 L 993 444 993 435.088 C 993 411.940, 984.861 393.279, 969.011 380.089 C 958.203 371.094, 948.055 367.083, 934.500 366.447 C 928.788 366.179, 923.202 366.548, 919.209 367.458 M 1212.209 367.458 C 1189.893 372.542, 1172.071 390.761, 1165.932 414.766 C 1163.296 425.072, 1163.314 440.996, 1165.972 451.391 C 1169.934 466.883, 1180.201 481.335, 1193.314 489.879 C 1203.176 496.304, 1209.691 498.289, 1222.500 498.768 C 1241.990 499.498, 1254.610 494.914, 1268.132 482.194 C 1272.459 478.123, 1276 474.257, 1276 473.602 C 1276 472.536, 1260.045 460, 1258.688 460 C 1258.383 460, 1255.860 462.214, 1253.082 464.920 C 1250.304 467.626, 1245.436 471.112, 1242.265 472.667 C 1237.002 475.248, 1235.543 475.494, 1225.500 475.497 C 1215.846 475.500, 1213.888 475.200, 1209.500 473.047 C 1206.750 471.698, 1202.396 468.440, 1199.824 465.806 C 1195.460 461.338, 1188 448.441, 1188 445.366 C 1188 444.230, 1196.254 444, 1237 444 L 1286 444 1286 435.088 C 1286 411.940, 1277.861 393.279, 1262.011 380.089 C 1251.203 371.094, 1241.055 367.083, 1227.500 366.447 C 1221.788 366.179, 1216.202 366.548, 1212.209 367.458 M 1352.161 367.962 C 1333.285 373.087, 1317.859 388.295, 1310.655 408.882 C 1308.082 416.234, 1307.576 419.348, 1307.206 430.084 C 1306.438 452.445, 1311.643 466.595, 1325.985 481.129 C 1338.762 494.078, 1349.938 499.012, 1366.432 498.985 C 1383.919 498.957, 1395.612 494.286, 1407.750 482.483 C 1411.737 478.605, 1415 474.903, 1415 474.255 C 1415 473.293, 1404.135 464.591, 1399.228 461.624 C 1398.415 461.133, 1396.066 462.562, 1392.728 465.580 C 1385.034 472.535, 1378.257 475.379, 1368.310 475.830 C 1357.804 476.305, 1351.739 474.369, 1345.136 468.432 C 1338.926 462.849, 1334.325 455.717, 1331.895 447.909 C 1329.269 439.472, 1329.323 425.402, 1332.016 416.685 C 1335.247 406.223, 1344.021 396.090, 1353.466 391.912 C 1366.288 386.240, 1385.452 389.918, 1394.038 399.696 C 1395.634 401.513, 1397.210 403, 1397.540 403 C 1398.097 403, 1408.433 395.921, 1413.848 391.831 L 1416.197 390.058 1410.462 384.046 C 1407.308 380.739, 1402.652 376.707, 1400.114 375.085 C 1387.716 367.160, 1366.644 364.030, 1352.161 367.962 M 95.286 390.391 C 84.553 393.898, 75.956 401.769, 70.689 412.915 C 68.094 418.405, 67.591 420.806, 67.202 429.568 C 66.827 437.998, 67.115 441.016, 68.832 446.653 C 72.442 458.507, 80.384 468.552, 89.807 473.183 C 96.730 476.586, 109.422 476.950, 117.355 473.974 C 128.678 469.727, 139.041 456.727, 141.885 443.201 C 146.206 422.657, 136.160 399.999, 119.311 392.285 C 112.440 389.139, 101.706 388.293, 95.286 390.391 M 250.286 390.451 C 237.972 394.299, 226.514 406.246, 223.624 418.250 L 222.962 421 260.560 421 L 298.159 421 297.459 417.750 C 295.116 406.871, 283.077 394.682, 270.945 390.906 C 263.918 388.719, 256.361 388.552, 250.286 390.451 M 486.286 390.391 C 475.553 393.898, 466.956 401.769, 461.689 412.915 C 459.094 418.405, 458.591 420.806, 458.202 429.568 C 457.827 437.998, 458.115 441.016, 459.832 446.653 C 463.442 458.507, 471.384 468.552, 480.807 473.183 C 487.730 476.586, 500.422 476.950, 508.355 473.974 C 519.678 469.727, 530.041 456.727, 532.885 443.201 C 537.206 422.657, 527.160 399.999, 510.311 392.285 C 503.440 389.139, 492.706 388.293, 486.286 390.391 M 630.286 390.391 C 619.553 393.898, 610.956 401.769, 605.689 412.915 C 603.094 418.405, 602.591 420.806, 602.202 429.568 C 601.827 437.998, 602.115 441.016, 603.832 446.653 C 607.442 458.507, 615.384 468.552, 624.807 473.183 C 631.730 476.586, 644.422 476.950, 652.355 473.974 C 663.678 469.727, 674.041 456.727, 676.885 443.201 C 681.206 422.657, 671.160 399.999, 654.311 392.285 C 647.440 389.139, 636.706 388.293, 630.286 390.391 M 922.286 390.451 C 909.972 394.299, 898.514 406.246, 895.624 418.250 L 894.962 421 932.560 421 L 970.159 421 969.459 417.750 C 967.116 406.871, 955.077 394.682, 942.945 390.906 C 935.918 388.719, 928.361 388.552, 922.286 390.451 M 1215.286 390.451 C 1202.972 394.299, 1191.514 406.246, 1188.624 418.250 L 1187.962 421 1225.560 421 L 1263.159 421 1262.459 417.750 C 1260.116 406.871, 1248.077 394.682, 1235.945 390.906 C 1228.918 388.719, 1221.361 388.552, 1215.286 390.451 M 1031 488.500 L 1031 500 1042.500 500 L 1054 500 1054 488.500 L 1054 477 1042.500 477 L 1031 477 1031 488.500" stroke="none" fill="#ffffff" fill-rule="evenodd"/><path d="" stroke="none" fill="#fffcfc" fill-rule="evenodd"/><path d="" stroke="none" fill="#fcfcfc" fill-rule="evenodd"/></svg>